<?xml version="1.0" encoding="UTF-8"?>
<svg version="1.1" xmlns="http://www.w3.org/2000/svg" width="32" height="32">
<path d="M0 0 C1.8125 0.0625 1.8125 0.0625 4 1 C4.598125 1.99 5.19625 2.98 5.8125 4 C7.77550497 7.37795879 7.77550497 7.37795879 11.75 7.875 C13.35875 7.936875 13.35875 7.936875 15 8 C15 5.69 15 3.38 15 1 C16.32 1 17.64 1 19 1 C19 3.31 19 5.62 19 8 C21.475 8.495 21.475 8.495 24 9 C24 9.99 24 10.98 24 12 C22.35 12 20.7 12 19 12 C19 12.99 19 13.98 19 15 C20.65 15 22.3 15 24 15 C24 16.32 24 17.64 24 19 C22.35 19 20.7 19 19 19 C19 21.64 19 24.28 19 27 C17.68 27.33 16.36 27.66 15 28 C14.16094435 26.87926138 13.32892169 25.75325453 12.5 24.625 C12.0359375 23.99851562 11.571875 23.37203125 11.09375 22.7265625 C10 21 10 21 10 19 C7.69 19 5.38 19 3 19 C3 21.64 3 24.28 3 27 C1.68 27 0.36 27 -1 27 C-1 24.36 -1 21.72 -1 19 C-2.65 19 -4.3 19 -6 19 C-6.33 18.01 -6.66 17.02 -7 16 C-6 15 -6 15 -3.4375 14.9375 C-2.633125 14.958125 -1.82875 14.97875 -1 15 C-1 14.01 -1 13.02 -1 12 C-2.65 12 -4.3 12 -6 12 C-6 11.01 -6 10.02 -6 9 C-4.35 8.67 -2.7 8.34 -1 8 C-1.020625 6.865625 -1.04125 5.73125 -1.0625 4.5625 C-1 1 -1 1 0 0 Z M3 12 C3 12.99 3 13.98 3 15 C4.32 14.67 5.64 14.34 7 14 C5.68 13.34 4.36 12.68 3 12 Z M11 12 C11.33 12.99 11.66 13.98 12 15 C12.99 15 13.98 15 15 15 C15 14.01 15 13.02 15 12 C13.68 12 12.36 12 11 12 Z " fill="#131313" transform="translate(7,2)"/>
</svg>
